# xmcd
#
# Track frame offsets: 
#        150
#        14235
#        26620
#        34905
#        50257
#        65197
#        82800
#        94070
#        106430
#        116877
#        133552
#        147565
#
# Disc length: 2176 seconds
#
# Revision: 3
# Processed by: cddbd v1.5.2PL0 Copyright (c) Steve Scherf et al.
# Submitted via: ExactAudioCopy v1.0b3
#
DISCID=ae087e0c
DTITLE=The Red Clay Ramblers - It Ain't Right
DYEAR=1986
DGENRE=Bluegrass
TTITLE0=It Ain't Right
TTITLE1=Valley of the Dry Bones
TTITLE2=Dusk and Nothing Else
TTITLE3=Jim Canaan's
TTITLE4=Regions of Rain
TTITLE5=Merchant's Lunch
TTITLE6=Old Fashioned Girl
TTITLE7=Way Long Gone
TTITLE8=Life's A Mystery
TTITLE9=The Willow Garden
TTITLE10=Satan's Choir
TTITLE11=Fall On My Knees\\The Wandering Boy
EXTD=
EXTT0=
EXTT1=
EXTT2=
EXTT3=
EXTT4=
EXTT5=
EXTT6=
EXTT7=
EXTT8=
EXTT9=
EXTT10=
EXTT11=
PLAYORDER=
